<?xml version="1.0" encoding="utf-8"?>
<!-- Generator: Adobe Illustrator 21.0.0, SVG Export Plug-In . SVG Version: 6.00 Build 0)  -->
<svg version="1.1" id="Layer_1" xmlns="http://www.w3.org/2000/svg" xmlns:xlink="http://www.w3.org/1999/xlink" x="0px" y="0px"
	 viewBox="0 0 109.3 14" style="enable-background:new 0 0 109.3 14;" xml:space="preserve">
<style type="text/css">
	.st0{enable-background:new    ;}
	.st1{fill:#121212;}
	.st2{fill:#1EB069;}
</style>
<g class="st0">
	<path class="st1" d="M35.8,8.4H35v4.6h-2.6V1.6H35V6h0.5l2.6-4.5h3.3l-3.6,5.2l3.9,6.2h-3.4L35.8,8.4z"/>
	<path class="st1" d="M51.8,8.3c0,1.4-0.4,2.6-1.3,3.5c-0.9,0.9-2,1.4-3.5,1.4c-1.4,0-2.6-0.5-3.5-1.4c-0.9-0.9-1.3-2.1-1.3-3.5v-2
		c0-1.4,0.4-2.5,1.3-3.5c0.9-0.9,2.1-1.4,3.5-1.4c1.4,0,2.6,0.5,3.5,1.4c0.9,0.9,1.3,2.1,1.3,3.5V8.3z M49.2,6.2
		c0-0.8-0.2-1.5-0.6-2S47.7,3.4,47,3.4c-0.7,0-1.3,0.3-1.6,0.8c-0.4,0.5-0.6,1.2-0.6,2v2.1c0,0.8,0.2,1.5,0.6,2s0.9,0.8,1.6,0.8
		c0.7,0,1.2-0.3,1.6-0.8c0.4-0.5,0.6-1.2,0.6-2V6.2z"/>
	<path class="st1" d="M56.1,10.9h4.9v2h-7.5V1.6h2.6V10.9z"/>
	<path class="st1" d="M65,10.9h4.9v2h-7.5V1.6H65V10.9z"/>
	<path class="st1" d="M77.4,10.7H74l-0.7,2.2h-2.8l3.7-11.4h1.4v0l0,0h1.4l3.7,11.4h-2.8L77.4,10.7z M74.6,8.7h2.2l-1.1-3.5h0
		L74.6,8.7z"/>
	<path class="st1" d="M84.3,9.1v3.9h-2.6V1.6H86c1.3,0,2.4,0.3,3.2,1c0.8,0.7,1.2,1.6,1.2,2.7S90,7.3,89.2,8c-0.8,0.7-1.9,1-3.2,1
		H84.3z M84.3,7H86c0.6,0,1-0.2,1.3-0.5c0.3-0.3,0.5-0.7,0.5-1.2c0-0.5-0.2-0.9-0.4-1.2C87,3.8,86.6,3.6,86,3.6h-1.7V7z"/>
	<path class="st1" d="M97.7,9.9c0-0.4-0.1-0.7-0.4-0.9s-0.7-0.4-1.4-0.7c-1.4-0.5-2.5-0.9-3.1-1.5c-0.7-0.5-1-1.3-1-2.2
		c0-1,0.4-1.7,1.2-2.3s1.8-0.9,3-0.9c1.3,0,2.3,0.3,3.1,0.9c0.8,0.6,1.2,1.5,1.1,2.6l0,0h-2.6c0-0.5-0.1-0.9-0.4-1.2
		c-0.3-0.2-0.7-0.4-1.3-0.4c-0.5,0-0.9,0.1-1.1,0.4c-0.3,0.2-0.4,0.5-0.4,0.9c0,0.3,0.1,0.6,0.4,0.8c0.3,0.2,0.8,0.5,1.6,0.8
		c1.3,0.4,2.3,0.9,3,1.4c0.7,0.6,1,1.3,1,2.3c0,1-0.4,1.8-1.2,2.3s-1.8,0.8-3.1,0.8c-1.3,0-2.4-0.3-3.3-0.9
		c-0.9-0.6-1.3-1.6-1.3-2.9l0,0h2.6c0,0.7,0.2,1.1,0.5,1.4c0.3,0.3,0.8,0.4,1.5,0.4c0.6,0,1-0.1,1.2-0.3
		C97.6,10.6,97.7,10.3,97.7,9.9z"/>
	<path class="st1" d="M108.5,8.1h-4v2.8h4.8v2h-7.4V1.6h7.5v2h-4.8v2.4h4V8.1z"/>
</g>
<path class="st2" d="M0,1.2C0,1,0,0.8,0.1,0.7C0.3,0.3,0.7,0,1.2,0h7.4c0.7,0,1.2,0.5,1.2,1.2c0,0.7-0.6,1.2-1.2,1.2H4l8,8.7l8-8.7
	h-4.7c-0.7,0-1.2-0.5-1.2-1.2c0-0.7,0.6-1.2,1.2-1.2h7.4c0.5,0,0.9,0.3,1.2,0.7c0.2,0.4,0.1,0.9-0.2,1.2L13,13.6
	c-0.3,0.2-0.6,0.4-1,0.4c-0.3,0-0.7-0.2-0.9-0.4L0.3,1.9C0.1,1.7,0,1.5,0,1.2z"/>
</svg>
