<?xml version="1.0" encoding="UTF-8"?>
<svg width="176px" height="29px" viewBox="0 0 176 29" version="1.1" xmlns="http://www.w3.org/2000/svg" xmlns:xlink="http://www.w3.org/1999/xlink">
    <!-- Generator: Sketch 49.3 (51167) - http://www.bohemiancoding.com/sketch -->
    <title>prenzlmedia</title>
    <desc>Created with Sketch.</desc>
    <defs></defs>
    <g id="Page-1" stroke="none" stroke-width="1" fill="none" fill-rule="evenodd">
        <g id="desktop-copy-13" transform="translate(-126.000000, -73.000000)" fill="#0002DF">
            <path d="M136.25,95.3 C135.009994,95.3 133.930005,95.0250027 133.01,94.475 C132.089995,93.9249973 131.370003,93.1800047 130.85,92.24 L130.85,101.39 L126.83,101.39 L126.83,79.28 L130.34,79.28 L130.34,81.98 C130.920003,81.0599954 131.669995,80.3350027 132.59,79.805 C133.510005,79.2749974 134.569994,79.01 135.77,79.01 C136.830005,79.01 137.809996,79.2249978 138.71,79.655 C139.610005,80.0850022 140.384997,80.6649963 141.035,81.395 C141.685003,82.1250036 142.194998,82.9849951 142.565,83.975 C142.935002,84.965005 143.12,86.0099945 143.12,87.11 C143.12,88.2500057 142.950002,89.319995 142.61,90.32 C142.269998,91.320005 141.795003,92.1899963 141.185,92.93 C140.574997,93.6700037 139.850004,94.2499979 139.01,94.67 C138.169996,95.0900021 137.250005,95.3 136.25,95.3 Z M134.9,91.88 C135.500003,91.88 136.054997,91.7500013 136.565,91.49 C137.075003,91.2299987 137.509998,90.8800022 137.87,90.44 C138.230002,89.9999978 138.509999,89.4900029 138.71,88.91 C138.910001,88.3299971 139.01,87.7300031 139.01,87.11 C139.01,86.4499967 138.900001,85.8350028 138.68,85.265 C138.459999,84.6949972 138.155002,84.2000021 137.765,83.78 C137.374998,83.3599979 136.915003,83.0300012 136.385,82.79 C135.854997,82.5499988 135.280003,82.43 134.66,82.43 C134.279998,82.43 133.890002,82.4949994 133.49,82.625 C133.089998,82.7550006 132.720002,82.9399988 132.38,83.18 C132.039998,83.4200012 131.735001,83.6999984 131.465,84.02 C131.194999,84.3400016 130.990001,84.6899981 130.85,85.07 L130.85,88.76 C131.210002,89.6600045 131.759996,90.404997 132.5,90.995 C133.240004,91.585003 134.039996,91.88 134.9,91.88 Z M154.91,82.76 C153.689994,82.7800001 152.600005,83.0149977 151.64,83.465 C150.679995,83.9150023 149.990002,84.5899955 149.57,85.49 L149.57,95 L145.55,95 L145.55,79.28 L149.24,79.28 L149.24,82.64 C149.520001,82.0999973 149.849998,81.6150021 150.23,81.185 C150.610002,80.7549978 151.019998,80.3800016 151.46,80.06 C151.900002,79.7399984 152.344998,79.4950008 152.795,79.325 C153.245002,79.1549992 153.679998,79.07 154.1,79.07 L154.595,79.07 C154.705001,79.07 154.809999,79.0799999 154.91,79.1 L154.91,82.76 Z M163.37,95.3 C162.109994,95.3 160.970005,95.0850022 159.95,94.655 C158.929995,94.2249978 158.060004,93.6400037 157.34,92.9 C156.619996,92.1599963 156.065002,91.3000049 155.675,90.32 C155.284998,89.3399951 155.09,88.3100054 155.09,87.23 C155.09,86.1099944 155.279998,85.0550049 155.66,84.065 C156.040002,83.074995 156.589996,82.2050038 157.31,81.455 C158.030004,80.7049962 158.904995,80.1100022 159.935,79.67 C160.965005,79.2299978 162.119994,79.01 163.4,79.01 C164.680006,79.01 165.824995,79.2299978 166.835,79.67 C167.845005,80.1100022 168.704996,80.6999963 169.415,81.44 C170.125004,82.1800037 170.664998,83.0399951 171.035,84.02 C171.405002,85.0000049 171.59,86.0199947 171.59,87.08 C171.59,87.3400013 171.585,87.5899988 171.575,87.83 C171.565,88.0700012 171.54,88.2699992 171.5,88.43 L159.35,88.43 C159.41,89.0500031 159.559999,89.5999976 159.8,90.08 C160.040001,90.5600024 160.349998,90.9699983 160.73,91.31 C161.110002,91.6500017 161.539998,91.9099991 162.02,92.09 C162.500002,92.2700009 162.999997,92.36 163.52,92.36 C164.320004,92.36 165.074996,92.165002 165.785,91.775 C166.495004,91.3849981 166.979999,90.8700032 167.24,90.23 L170.69,91.19 C170.109997,92.390006 169.185006,93.3749962 167.915,94.145 C166.644994,94.9150039 165.130009,95.3 163.37,95.3 Z M167.45,85.82 C167.349999,84.6399941 166.915004,83.6950035 166.145,82.985 C165.374996,82.2749965 164.440005,81.92 163.34,81.92 C162.799997,81.92 162.295002,82.0149991 161.825,82.205 C161.354998,82.3950009 160.940002,82.6599983 160.58,83 C160.219998,83.3400017 159.925001,83.7499976 159.695,84.23 C159.464999,84.7100024 159.33,85.2399971 159.29,85.82 L167.45,85.82 Z M188.36,95 L184.34,95 L184.34,86.18 C184.34,84.9199937 184.120002,84.0000029 183.68,83.42 C183.239998,82.8399971 182.630004,82.55 181.85,82.55 C181.449998,82.55 181.040002,82.6299992 180.62,82.79 C180.199998,82.9500008 179.805002,83.1749985 179.435,83.465 C179.064998,83.7550014 178.730001,84.099998 178.43,84.5 C178.129998,84.900002 177.910001,85.3399976 177.77,85.82 L177.77,95 L173.75,95 L173.75,79.28 L177.38,79.28 L177.38,82.19 C177.960003,81.189995 178.799994,80.4100028 179.9,79.85 C181.000005,79.2899972 182.239993,79.01 183.62,79.01 C184.600005,79.01 185.399997,79.1899982 186.02,79.55 C186.640003,79.9100018 187.119998,80.3799971 187.46,80.96 C187.800002,81.5400029 188.034999,82.1999963 188.165,82.94 C188.295001,83.6800037 188.36,84.4299962 188.36,85.19 L188.36,95 Z M190.52,92.54 L199.28,82.1 L190.88,82.1 L190.88,79.28 L203.51,79.28 L203.51,81.74 L194.81,92.18 L203.66,92.18 L203.66,95 L190.52,95 L190.52,92.54 Z M206.03,73.1 L210.05,73.1 L210.05,89.96 C210.05,90.5400029 210.189999,90.9899984 210.47,91.31 C210.750001,91.6300016 211.149997,91.79 211.67,91.79 C211.910001,91.79 212.174998,91.7500004 212.465,91.67 C212.755001,91.5899996 213.029999,91.4900006 213.29,91.37 L213.83,94.43 C213.289997,94.6900013 212.660004,94.8899993 211.94,95.03 C211.219996,95.1700007 210.570003,95.24 209.99,95.24 C208.729994,95.24 207.755003,94.9050034 207.065,94.235 C206.374996,93.5649966 206.03,92.6100062 206.03,91.37 L206.03,73.1 Z M239.69,95 L235.67,95 L235.67,86.18 C235.67,84.9199937 235.455002,84.0000029 235.025,83.42 C234.594998,82.8399971 234.000004,82.55 233.24,82.55 C232.439996,82.55 231.690003,82.854997 230.99,83.465 C230.289996,84.0750031 229.790001,84.8699951 229.49,85.85 L229.49,95 L225.47,95 L225.47,86.18 C225.47,84.9199937 225.255002,84.0000029 224.825,83.42 C224.394998,82.8399971 223.800004,82.55 223.04,82.55 C222.259996,82.55 221.515003,82.849997 220.805,83.45 C220.094996,84.050003 219.590001,84.8399951 219.29,85.82 L219.29,95 L215.27,95 L215.27,79.28 L218.9,79.28 L218.9,82.19 C219.480003,81.1699949 220.274995,80.3850027 221.285,79.835 C222.295005,79.2849973 223.449993,79.01 224.75,79.01 C226.070007,79.01 227.089996,79.3299968 227.81,79.97 C228.530004,80.6100032 228.989999,81.3999953 229.19,82.34 C229.830003,81.2599946 230.639995,80.4350029 231.62,79.865 C232.600005,79.2949972 233.719994,79.01 234.98,79.01 C235.940005,79.01 236.729997,79.1899982 237.35,79.55 C237.970003,79.9100018 238.449998,80.3799971 238.79,80.96 C239.130002,81.5400029 239.364999,82.1999963 239.495,82.94 C239.625001,83.6800037 239.69,84.4299962 239.69,85.19 L239.69,95 Z M250.19,95.3 C248.929994,95.3 247.790005,95.0850022 246.77,94.655 C245.749995,94.2249978 244.880004,93.6400037 244.16,92.9 C243.439996,92.1599963 242.885002,91.3000049 242.495,90.32 C242.104998,89.3399951 241.91,88.3100054 241.91,87.23 C241.91,86.1099944 242.099998,85.0550049 242.48,84.065 C242.860002,83.074995 243.409996,82.2050038 244.13,81.455 C244.850004,80.7049962 245.724995,80.1100022 246.755,79.67 C247.785005,79.2299978 248.939994,79.01 250.22,79.01 C251.500006,79.01 252.644995,79.2299978 253.655,79.67 C254.665005,80.1100022 255.524996,80.6999963 256.235,81.44 C256.945003,82.1800037 257.484998,83.0399951 257.855,84.02 C258.225002,85.0000049 258.41,86.0199947 258.41,87.08 C258.41,87.3400013 258.405,87.5899988 258.395,87.83 C258.385,88.0700012 258.36,88.2699992 258.32,88.43 L246.17,88.43 C246.23,89.0500031 246.379999,89.5999976 246.62,90.08 C246.860001,90.5600024 247.169998,90.9699983 247.55,91.31 C247.930002,91.6500017 248.359998,91.9099991 248.84,92.09 C249.320002,92.2700009 249.819997,92.36 250.34,92.36 C251.140004,92.36 251.894996,92.165002 252.605,91.775 C253.315003,91.3849981 253.799999,90.8700032 254.06,90.23 L257.51,91.19 C256.929997,92.390006 256.005006,93.3749962 254.735,94.145 C253.464994,94.9150039 251.950009,95.3 250.19,95.3 Z M254.27,85.82 C254.169999,84.6399941 253.735004,83.6950035 252.965,82.985 C252.194996,82.2749965 251.260005,81.92 250.16,81.92 C249.619997,81.92 249.115002,82.0149991 248.645,82.205 C248.174998,82.3950009 247.760002,82.6599983 247.4,83 C247.039998,83.3400017 246.745001,83.7499976 246.515,84.23 C246.284999,84.7100024 246.15,85.2399971 246.11,85.82 L254.27,85.82 Z M267.08,95.3 C265.999995,95.3 265.000005,95.0900021 264.08,94.67 C263.159995,94.2499979 262.370003,93.6700037 261.71,92.93 C261.049997,92.1899963 260.535002,91.3250049 260.165,90.335 C259.794998,89.344995 259.61,88.2800057 259.61,87.14 C259.61,85.9999943 259.784998,84.9400049 260.135,83.96 C260.485002,82.9799951 260.969997,82.1200037 261.59,81.38 C262.210003,80.6399963 262.949996,80.0600021 263.81,79.64 C264.670004,79.2199979 265.609995,79.01 266.63,79.01 C267.790006,79.01 268.834995,79.2899972 269.765,79.85 C270.695005,80.4100028 271.419997,81.1399955 271.94,82.04 L271.94,73.1 L275.96,73.1 L275.96,90.38 C275.96,90.8000021 276.029999,91.0999991 276.17,91.28 C276.310001,91.4600009 276.549998,91.5599999 276.89,91.58 L276.89,95 C276.189996,95.1400007 275.620002,95.21 275.18,95.21 C274.459996,95.21 273.870002,95.0300018 273.41,94.67 C272.949998,94.3099982 272.69,93.8400029 272.63,93.26 L272.54,92.27 C271.959997,93.270005 271.175005,94.0249975 270.185,94.535 C269.194995,95.0450025 268.160005,95.3 267.08,95.3 Z M268.13,91.88 C268.510002,91.88 268.899998,91.8150007 269.3,91.685 C269.700002,91.5549994 270.069998,91.3700012 270.41,91.13 C270.750002,90.8899988 271.054999,90.6100016 271.325,90.29 C271.595001,89.9699984 271.799999,89.6200019 271.94,89.24 L271.94,85.49 C271.779999,85.0499978 271.555001,84.6450018 271.265,84.275 C270.974998,83.9049981 270.645002,83.5850013 270.275,83.315 C269.904998,83.0449986 269.515002,82.8300008 269.105,82.67 C268.694998,82.5099992 268.290002,82.43 267.89,82.43 C267.289997,82.43 266.735002,82.5599987 266.225,82.82 C265.714997,83.0800013 265.280002,83.4349978 264.92,83.885 C264.559998,84.3350023 264.280001,84.8499971 264.08,85.43 C263.879999,86.0100029 263.78,86.6099969 263.78,87.23 C263.78,87.8900033 263.889999,88.4999972 264.11,89.06 C264.330001,89.6200028 264.629998,90.1099979 265.01,90.53 C265.390002,90.9500021 265.844997,91.2799988 266.375,91.52 C266.905003,91.7600012 267.489997,91.88 268.13,91.88 Z M279.62,95 L279.62,79.28 L283.64,79.28 L283.64,95 L279.62,95 Z M279.62,77.09 L279.62,73.1 L283.64,73.1 L283.64,77.09 L279.62,77.09 Z M291.26,95.3 C290.499996,95.3 289.790003,95.1750013 289.13,94.925 C288.469997,94.6749988 287.900002,94.3250022 287.42,93.875 C286.939997,93.4249978 286.565001,92.900003 286.295,92.3 C286.024999,91.699997 285.89,91.0400036 285.89,90.32 C285.89,89.5799963 286.054998,88.8950032 286.385,88.265 C286.715002,87.6349968 287.174997,87.1000022 287.765,86.66 C288.355003,86.2199978 289.059996,85.8750012 289.88,85.625 C290.700004,85.3749988 291.599995,85.25 292.58,85.25 C293.280003,85.25 293.964997,85.3099994 294.635,85.43 C295.305003,85.5500006 295.899997,85.7199989 296.42,85.94 L296.42,85.04 C296.42,83.9999948 296.125003,83.2000028 295.535,82.64 C294.944997,82.0799972 294.070006,81.8 292.91,81.8 C292.069996,81.8 291.250004,81.9499985 290.45,82.25 C289.649996,82.5500015 288.830004,82.9899971 287.99,83.57 L286.76,81.02 C288.78001,79.6799933 290.959988,79.01 293.3,79.01 C295.560011,79.01 297.314994,79.5649945 298.565,80.675 C299.815006,81.7850055 300.44,83.3899895 300.44,85.49 L300.44,90.38 C300.44,90.8000021 300.514999,91.0999991 300.665,91.28 C300.815001,91.4600009 301.059998,91.5599999 301.4,91.58 L301.4,95 C300.719996,95.1400007 300.130002,95.21 299.63,95.21 C298.869996,95.21 298.285002,95.0400017 297.875,94.7 C297.464998,94.3599983 297.21,93.9100028 297.11,93.35 L297.02,92.48 C296.319996,93.4000046 295.470005,94.0999976 294.47,94.58 C293.469995,95.0600024 292.400006,95.3 291.26,95.3 Z M292.4,92.36 C293.080003,92.36 293.724997,92.2400012 294.335,92 C294.945003,91.7599988 295.419998,91.440002 295.76,91.04 C296.200002,90.6999983 296.42,90.3200021 296.42,89.9 L296.42,88.1 C295.939997,87.9199991 295.420003,87.7750006 294.86,87.665 C294.299997,87.5549994 293.760002,87.5 293.24,87.5 C292.199995,87.5 291.350003,87.7349976 290.69,88.205 C290.029997,88.6750023 289.7,89.2699964 289.7,89.99 C289.7,90.6700034 289.959997,91.2349977 290.48,91.685 C291.000002,92.1350022 291.639996,92.36 292.4,92.36 Z" id="prenzlmedia"></path>
        </g>
    </g>
</svg>